<svg version="1.1" id="Layer_1" xmlns="http://www.w3.org/2000/svg" xmlns:xlink="http://www.w3.org/1999/xlink" x="0px" y="0px"
	 width="100%" viewBox="0 0 225 225" enable-background="new 0 0 225 225" xml:space="preserve">
<path fill="#010101" opacity="1.000000" stroke="none" 
	d="
M124.000000,226.000000 
	C116.312424,226.000000 108.624847,226.000000 100.356972,225.626846 
	C98.328148,224.901550 96.895241,224.455948 95.428825,224.210831 
	C49.107616,216.467804 13.419668,182.258392 3.662028,136.277588 
	C2.928113,132.819168 1.894368,129.424377 1.000000,126.000000 
	C1.000000,117.645767 1.000000,109.291534 1.373157,100.356979 
	C2.117329,98.162376 2.581702,96.563194 2.845751,94.931595 
	C10.125289,49.950619 45.209423,13.183835 89.764275,3.813308 
	C93.539742,3.019274 97.256157,1.944403 101.000000,1.000000 
	C108.354256,1.000000 115.708504,1.000000 123.689262,1.376686 
	C172.675583,6.300325 213.017105,42.233936 223.184631,89.773483 
	C223.991028,93.543907 225.055466,97.259125 226.000000,101.000000 
	C226.000000,109.020897 226.000000,117.041801 225.633087,125.674034 
	C224.906036,128.074509 224.543274,129.863098 224.186188,131.652847 
	C214.768967,178.851730 186.955673,209.125992 140.642044,222.274857 
	C135.182251,223.824936 129.551498,224.772919 124.000000,226.000000 
M134.621979,90.840103 
	C128.030457,79.377907 121.438934,67.915710 114.523804,55.890781 
	C95.786674,88.678993 77.441780,120.780823 58.870827,153.278229 
	C96.227036,153.278229 132.894852,153.278229 170.219299,153.278229 
	C158.292419,132.361069 146.637054,111.920113 134.621979,90.840103 
z"/>
<path fill="#FCFCFC" opacity="1.000000" stroke="none" 
	d="
M226.000000,100.531342 
	C225.055466,97.259125 223.991028,93.543907 223.184631,89.773483 
	C213.017105,42.233936 172.675583,6.300325 124.157883,1.376686 
	C157.926208,1.000000 191.852417,1.000000 226.000000,1.000000 
	C226.000000,34.020565 226.000000,67.041626 226.000000,100.531342 
z"/>
<path fill="#FCFCFC" opacity="1.000000" stroke="none" 
	d="
M124.468658,226.000000 
	C129.551498,224.772919 135.182251,223.824936 140.642044,222.274857 
	C186.955673,209.125992 214.768967,178.851730 224.186188,131.652847 
	C224.543274,129.863098 224.906036,128.074509 225.633087,126.142685 
	C226.000000,159.260986 226.000000,192.521988 226.000000,226.000000 
	C192.312744,226.000000 158.625031,226.000000 124.468658,226.000000 
z"/>
<path fill="#FCFCFC" opacity="1.000000" stroke="none" 
	d="
M100.531342,1.000000 
	C97.256157,1.944403 93.539742,3.019274 89.764275,3.813308 
	C45.209423,13.183835 10.125289,49.950619 2.845751,94.931595 
	C2.581702,96.563194 2.117329,98.162376 1.373157,99.888336 
	C1.000000,67.072693 1.000000,34.145393 1.000000,1.000000 
	C34.020573,1.000000 67.041626,1.000000 100.531342,1.000000 
z"/>
<path fill="#FCFCFC" opacity="1.000000" stroke="none" 
	d="
M1.000000,126.468658 
	C1.894368,129.424377 2.928113,132.819168 3.662028,136.277588 
	C13.419668,182.258392 49.107616,216.467804 95.428825,224.210831 
	C96.895241,224.455948 98.328148,224.901550 99.888336,225.626846 
	C67.072693,226.000000 34.145393,226.000000 1.000000,226.000000 
	C1.000000,192.979431 1.000000,159.958374 1.000000,126.468658 
z"/>
<path fill="#FBFBFB" opacity="1.000000" stroke="none" 
	d="
M134.801849,91.159630 
	C146.637054,111.920113 158.292419,132.361069 170.219299,153.278229 
	C132.894852,153.278229 96.227036,153.278229 58.870827,153.278229 
	C77.441780,120.780823 95.786674,88.678993 114.523804,55.890781 
	C121.438934,67.915710 128.030457,79.377907 134.801849,91.159630 
z"/>
</svg>